<svg width="30" height="30" viewBox="0 0 30 30" fill="none" xmlns="http://www.w3.org/2000/svg">
<path d="M6.63384 22.5264C7.77161 22.5264 8.84159 22.0832 9.64626 21.2792L13.9959 16.9295C14.3013 16.6232 14.8335 16.6242 15.1388 16.9295L19.5043 21.295C20.309 22.0993 21.379 22.5422 22.5171 22.5422H23.374L17.8653 28.0512C16.1446 29.7716 13.3552 29.7716 11.6345 28.0512L6.10999 22.5264H6.63384Z" fill="#4BB8A9"/>
<path d="M22.5168 7.14073C21.3791 7.14073 20.3091 7.5839 19.5044 8.38792L15.1389 12.7544C14.8245 13.0687 14.311 13.07 13.996 12.754L9.64634 8.40374C8.84167 7.59971 7.77169 7.15655 6.6336 7.15655H6.10974L11.6346 1.63201C13.355 -0.0886822 16.1447 -0.0886822 17.865 1.63201L23.3738 7.14073H22.5168Z" fill="#4BB8A9"/>
<path d="M1.54028 11.7262L4.83092 8.4356H6.63392C7.41857 8.4356 8.18677 8.75385 8.74129 9.30869L13.0909 13.6583C13.498 14.0654 14.0328 14.269 14.5673 14.269C15.1021 14.269 15.6363 14.0654 16.0433 13.659L20.4094 9.29287C20.964 8.73803 21.7318 8.41978 22.5168 8.41978L24.6526 8.41946L27.9594 11.7262C29.6801 13.4466 29.6801 16.2363 27.9594 17.9567L24.6529 21.2631H22.5168C21.7318 21.2631 20.964 20.9449 20.4094 20.3901L16.0436 16.0246C15.2548 15.2364 13.8792 15.2357 13.0909 16.0249L8.74129 20.3742C8.18677 20.9291 7.41857 21.2473 6.63392 21.2473H4.83092L1.54028 17.9567C-0.180092 16.2363 -0.180092 13.4466 1.54028 11.7262Z" fill="#4BB8A9"/>
</svg>
