<svg width="134" height="48" viewBox="0 0 134 48" fill="none" xmlns="http://www.w3.org/2000/svg">
<path d="M54.7719 44.154C54.3069 44.154 53.9303 43.777 53.9303 43.3125V17.3302C53.9303 11.8463 58.3917 7.38491 63.8756 7.38491L71.945 7.39677C77.4116 7.40764 81.8581 11.8631 81.8581 17.3287V24.0757C81.8581 29.5596 77.3962 34.021 71.9124 34.021H59.2466C58.7816 34.021 58.4051 33.6444 58.4051 33.1799C58.4051 32.7149 58.7816 32.3383 59.2466 32.3383H71.9124C76.4682 32.3383 80.175 28.6315 80.175 24.0757V17.3287C80.175 12.7892 76.482 9.08883 71.9425 9.07993L63.8746 9.06757C59.3198 9.06757 55.6135 12.7744 55.6135 17.3302V43.3125C55.6135 43.777 55.2369 44.154 54.7719 44.154Z" fill="#98989C"/>
<path d="M90.5069 34.1435C90.0424 34.1435 89.6653 33.7664 89.6653 33.3019V11.9585C89.6653 10.3623 88.3666 9.06409 86.7709 9.06409H83.2712C82.8061 9.06409 82.4296 8.68704 82.4296 8.22251C82.4296 7.75799 82.8061 7.38093 83.2712 7.38093H86.7709C89.2952 7.38093 91.3485 9.43423 91.3485 11.9585V33.3019C91.3485 33.7664 90.9714 34.1435 90.5069 34.1435Z" fill="#98989C"/>
<path d="M89.7566 5.23703L88.1693 3.64974C87.7754 3.25588 87.7754 2.61741 88.1693 2.22355L89.7556 0.637245C90.1499 0.242893 90.7894 0.242893 91.1837 0.637245L92.77 2.22355C93.1639 2.61741 93.1639 3.25588 92.77 3.64974L91.1827 5.23703C90.7889 5.63089 90.1504 5.63089 89.7566 5.23703Z" fill="#4BB8A9"/>
<path d="M100.65 34.0213H97.1794C96.7148 34.0213 96.3378 33.6443 96.3378 33.1798C96.3378 32.7152 96.7148 32.3382 97.1794 32.3382H100.65C102.224 32.3382 103.703 31.7254 104.816 30.613L112.934 22.6454C113.601 21.9778 114.489 21.6101 115.433 21.6101C116.377 21.6101 117.265 21.9778 117.932 22.6454L126.021 30.5834C127.133 31.6958 128.612 32.3085 130.186 32.3085H133.008C133.473 32.3085 133.85 32.6856 133.85 33.1501C133.85 33.6146 133.473 33.9917 133.008 33.9917H130.186C128.163 33.9917 126.261 33.204 124.83 31.7733L116.742 23.8354C116.392 23.486 115.927 23.2933 115.433 23.2933C114.939 23.2933 114.474 23.486 114.125 23.8354L106.006 31.803C104.575 33.2336 102.674 34.0213 100.65 34.0213Z" fill="#98989C"/>
<path d="M100.65 7.38094H97.1794C96.7148 7.38094 96.3378 7.75799 96.3378 8.22252C96.3378 8.68704 96.7148 9.0641 97.1794 9.0641H100.65C102.224 9.0641 103.703 9.67688 104.816 10.7893L112.934 18.7569C113.601 19.4245 114.489 19.7922 115.433 19.7922C116.377 19.7922 117.265 19.4245 117.932 18.7569L126.021 10.8189C127.133 9.70653 128.612 9.09375 130.186 9.09375H133.008C133.473 9.09375 133.85 8.71669 133.85 8.25217C133.85 7.78764 133.473 7.41059 133.008 7.41059H130.186C128.163 7.41059 126.261 8.1988 124.83 9.62894L116.742 17.5669C116.392 17.9163 115.927 18.109 115.433 18.109C114.939 18.109 114.474 17.9163 114.125 17.5669L106.006 9.59929C104.575 8.16865 102.674 7.38094 100.65 7.38094Z" fill="#98989C"/>
<path d="M10.4242 36.9072C12.1662 36.9072 13.8044 36.2287 15.0364 34.9977L21.6959 28.3382C22.1634 27.8693 22.9782 27.8707 23.4457 28.3382L30.1295 35.022C31.3614 36.2534 32.9996 36.9315 34.7421 36.9315H36.0541L27.62 45.366C24.9856 48 20.7149 48 18.0805 45.366L9.62216 36.9072H10.4242Z" fill="#4BB8A9"/>
<path d="M34.7418 13.3512C32.9999 13.3512 31.3617 14.0297 30.1297 15.2607L23.446 21.9459C22.9646 22.4272 22.1784 22.4292 21.6961 21.9454L15.0366 15.2849C13.8046 14.0539 12.1664 13.3754 10.4239 13.3754H9.62189L18.0807 4.91711C20.7147 2.28266 24.9858 2.28266 27.6198 4.91711L36.0539 13.3512H34.7418Z" fill="#4BB8A9"/>
<path d="M2.62583 20.3718L7.66395 15.3337H10.4244C11.6258 15.3337 12.8019 15.8209 13.6509 16.6704L20.3104 23.3299C20.9336 23.9531 21.7524 24.2649 22.5708 24.2649C23.3896 24.2649 24.2075 23.9531 24.8306 23.3309L31.5153 16.6462C32.3643 15.7967 33.54 15.3095 34.7418 15.3095L38.0118 15.309L43.0746 20.3718C45.709 23.0058 45.709 27.2769 43.0746 29.9109L38.0123 34.9732H34.7418C33.54 34.9732 32.3643 34.486 31.5153 33.6365L24.8311 26.9527C23.6234 25.746 21.5172 25.745 20.3104 26.9532L13.6509 33.6123C12.8019 34.4617 11.6258 34.949 10.4244 34.949H7.66395L2.62583 29.9109C-0.00812894 27.2769 -0.00812894 23.0058 2.62583 20.3718Z" fill="#4BB8A9"/>
</svg>
